<svg xmlns="http://www.w3.org/2000/svg" viewBox="0 0 120 120" role="img" aria-label="Trajectories from one starting point diverging">
  <rect width="120" height="120" fill="#eef2ff"/>
  <path d="M16 62 C30 60 36 40 50 38 C66 36 72 56 84 54 C96 52 98 34 106 26"
    fill="none" stroke="#94a3c8" stroke-width="3.5" stroke-linecap="round"/>
  <path d="M16 62 C30 64 38 84 52 80 C66 76 70 58 84 62 C98 66 100 84 106 92"
    fill="none" stroke="#94a3c8" stroke-width="3.5" stroke-linecap="round"/>
  <path d="M16 62 C30 62 36 52 50 56 C64 60 70 72 84 68 C94 65 100 56 106 58"
    fill="none" stroke="#2563eb" stroke-width="4.5" stroke-linecap="round"/>
  <circle cx="16" cy="62" r="5" fill="#1e3a8a"/>
  <g fill="#1e3a8a">
    <circle cx="106" cy="26" r="3.2"/>
    <circle cx="106" cy="58" r="3.2"/>
    <circle cx="106" cy="92" r="3.2"/>
  </g>
</svg>
